# xmcd
#
# Track frame offsets: 
#        150
#        17023
#        31647
#        45494
#        58518
#        72098
#        89964
#        101202
#        117402
#        132811
#        147356
#        165505
#        178880
#        192362
#        206482
#        221053
#
# Disc length: 3094 seconds
#
# Revision: 2
# Processed by: cddbd v1.5.2PL0 Copyright (c) Steve Scherf et al.
# Submitted via: ExactAudioCopy v1.0b3
#
DISCID=eb0c1410
DTITLE=蔡楓華 - 新曲.精選
DYEAR=1983
DGENRE=Pop
TTITLE0=何必曾相識
TTITLE1=歡呼聲
TTITLE2=倩影
TTITLE3=愛的火花
TTITLE4=煙外曉雲輕
TTITLE5=早春二月
TTITLE6=IQ 成熟時
TTITLE7=妳的微笑
TTITLE8=誓言
TTITLE9=愛的迷感
TTITLE10=人之初
TTITLE11=落雁
TTITLE12=白馬王子
TTITLE13=山中小故事
TTITLE14=點樣講你知
TTITLE15=青春三重奏
EXTD=YEAR: 2006
EXTT0=
EXTT1=
EXTT2=
EXTT3=
EXTT4=
EXTT5=
EXTT6=
EXTT7=
EXTT8=
EXTT9=
EXTT10=
EXTT11=
EXTT12=
EXTT13=
EXTT14=
EXTT15=
PLAYORDER=
